<?xml version="1.0" encoding="UTF-8" ?>
<!DOCTYPE svg PUBLIC "-//W3C//DTD SVG 1.1//EN" "http://www.w3.org/Graphics/SVG/1.1/DTD/svg11.dtd">
<svg width="400pt" height="152pt" viewBox="0 0 400 152" version="1.1" xmlns="http://www.w3.org/2000/svg">
<path fill="#ffffff" d=" M 0.00 0.00 L 400.00 0.00 L 400.00 152.00 L 0.00 152.00 L 0.00 24.62 C 0.56 29.70 3.19 34.64 7.58 37.40 C 12.48 40.64 18.81 40.50 24.31 39.08 C 29.33 37.71 34.32 34.23 35.66 28.95 C 36.40 26.35 36.19 22.83 33.52 21.41 C 31.67 20.16 29.53 21.48 27.61 21.82 C 28.00 23.06 28.39 24.30 28.78 25.55 C 29.53 25.03 31.03 24.00 31.78 23.49 C 35.15 28.51 30.11 34.41 24.97 35.20 C 17.91 37.10 10.60 31.75 9.07 24.86 C 7.12 18.29 9.69 10.07 16.27 7.23 C 19.85 5.66 23.48 7.67 26.21 9.92 C 26.23 12.03 26.25 14.14 26.26 16.25 C 27.42 16.25 28.59 16.25 29.75 16.25 C 29.75 12.08 29.75 7.92 29.75 3.75 C 28.66 3.75 27.58 3.75 26.50 3.74 C 26.52 4.29 26.55 5.39 26.56 5.94 C 22.06 4.20 16.90 3.06 12.39 5.42 C 5.62 7.97 1.22 14.49 0.00 21.46 L 0.00 0.00 Z" />
<path fill="#e81313" d=" M 26.50 3.74 C 27.58 3.75 28.66 3.75 29.75 3.75 C 29.75 7.92 29.75 12.08 29.75 16.25 C 28.59 16.25 27.42 16.25 26.26 16.25 C 26.25 14.14 26.23 12.03 26.21 9.92 C 23.48 7.67 19.85 5.66 16.27 7.23 C 9.69 10.07 7.12 18.29 9.07 24.86 C 10.60 31.75 17.91 37.10 24.97 35.20 C 30.11 34.41 35.15 28.51 31.78 23.49 C 31.03 24.00 29.53 25.03 28.78 25.55 C 28.39 24.30 28.00 23.06 27.61 21.82 C 29.53 21.48 31.67 20.16 33.52 21.41 C 36.19 22.83 36.40 26.35 35.66 28.95 C 34.32 34.23 29.33 37.71 24.31 39.08 C 18.81 40.50 12.48 40.64 7.58 37.40 C 3.19 34.64 0.56 29.70 0.00 24.62 L 0.00 21.46 C 1.22 14.49 5.62 7.97 12.39 5.42 C 16.90 3.06 22.06 4.20 26.56 5.94 C 26.55 5.39 26.52 4.29 26.50 3.74 Z" />
<path fill="#000000" d=" M 360.18 3.16 C 363.46 1.34 368.11 4.98 366.50 8.59 C 365.56 11.79 360.97 12.85 358.84 10.22 C 356.89 8.08 357.60 4.44 360.18 3.16 Z" />
<path fill="#e81313" d=" M 241.16 4.40 C 242.43 3.70 243.77 3.17 245.19 2.81 C 245.27 6.71 245.25 10.60 245.24 14.50 C 244.43 14.50 242.81 14.50 242.00 14.50 C 242.00 12.08 242.00 9.66 242.00 7.24 C 238.25 7.25 234.50 7.25 230.75 7.25 C 230.75 10.50 230.75 13.75 230.75 17.00 C 233.00 17.00 235.25 17.00 237.51 17.00 C 237.01 15.78 236.51 14.56 236.02 13.34 C 236.96 12.99 237.90 12.64 238.84 12.29 C 240.26 16.00 241.71 19.70 243.11 23.42 C 242.31 23.72 240.72 24.34 239.92 24.64 C 239.35 23.09 238.80 21.54 238.24 19.99 C 235.74 20.00 233.24 20.00 230.75 20.01 C 230.75 25.50 230.75 31.00 230.75 36.50 C 236.67 36.50 242.58 36.50 248.50 36.50 C 248.50 34.33 248.50 32.17 248.50 30.00 C 249.50 30.00 250.50 30.00 251.50 30.00 C 251.50 34.25 251.50 38.50 251.50 42.75 C 250.50 42.75 249.50 42.75 248.50 42.75 C 248.50 41.94 248.50 40.31 248.50 39.50 C 238.33 39.50 228.16 39.50 217.99 39.50 C 218.00 38.75 218.01 37.24 218.02 36.49 C 219.59 36.49 221.17 36.50 222.76 36.50 C 222.75 26.75 222.76 17.00 222.75 7.25 C 221.17 7.25 219.58 7.25 218.00 7.25 C 218.00 6.56 218.00 5.19 218.00 4.50 C 225.72 4.44 233.45 4.63 241.16 4.40 Z" />
<path fill="#000000" d=" M 340.78 6.50 C 344.40 5.76 347.99 4.86 351.49 3.64 C 351.51 14.93 351.49 26.21 351.50 37.50 C 352.12 37.50 353.38 37.50 354.00 37.50 C 354.00 38.00 354.00 39.00 353.99 39.50 C 350.72 39.50 347.46 39.50 344.19 39.49 C 344.23 39.05 344.31 38.17 344.34 37.72 C 339.23 40.39 332.34 41.30 327.63 37.36 C 323.41 34.04 323.35 27.51 326.17 23.27 C 329.91 17.63 337.27 13.29 344.00 16.44 C 344.00 13.78 344.00 11.12 344.00 8.46 C 343.23 8.55 341.68 8.74 340.90 8.84 C 340.87 8.26 340.81 7.09 340.78 6.50 Z" />
<path fill="#000000" d=" M 281.00 10.29 C 283.47 8.48 285.95 6.67 288.42 4.85 C 288.52 8.23 288.50 11.62 288.50 15.00 C 289.43 15.00 291.31 15.00 292.25 15.00 C 292.25 15.69 292.24 17.06 292.24 17.75 C 291.07 17.75 289.91 17.75 288.75 17.75 C 288.75 24.33 288.75 30.92 288.75 37.50 C 290.00 37.50 291.25 37.50 292.50 37.51 C 292.50 38.00 292.50 39.00 292.50 39.50 C 288.58 39.50 284.67 39.50 280.75 39.50 C 280.67 32.32 280.91 25.13 280.65 17.95 C 279.99 17.85 278.66 17.66 278.00 17.56 C 278.00 16.92 278.00 15.64 278.00 15.00 C 278.75 15.00 280.25 15.00 281.00 15.00 C 281.00 13.43 281.00 11.86 281.00 10.29 Z" />
<path fill="#000000" d=" M 140.00 14.25 C 140.75 14.25 142.24 14.25 142.99 14.24 C 142.99 14.83 143.00 16.00 143.00 16.59 C 148.05 14.76 153.73 13.97 158.94 15.58 C 161.31 16.29 163.78 18.27 163.48 20.99 C 163.55 26.48 163.47 31.97 163.49 37.47 C 164.00 37.49 165.02 37.52 165.52 37.54 L 165.47 39.50 C 162.31 39.50 159.15 39.50 155.98 39.50 L 156.03 37.54 C 151.42 40.34 145.51 41.12 140.39 39.41 C 135.83 37.64 135.15 30.75 138.93 27.85 C 143.83 23.98 150.45 24.49 156.19 23.02 C 156.30 21.38 156.24 19.43 154.90 18.27 C 151.13 16.52 146.89 17.88 143.19 19.14 C 143.13 19.86 142.99 21.29 142.93 22.00 C 142.19 22.00 140.73 22.00 140.00 22.00 C 140.00 19.42 140.00 16.84 140.00 14.25 Z" />
<path fill="#000000" d=" M 187.17 14.04 C 187.88 14.03 189.29 14.00 190.00 13.98 C 190.00 16.91 190.00 19.83 190.00 22.76 C 189.31 22.75 187.93 22.74 187.24 22.74 C 187.24 21.94 187.25 20.35 187.25 19.55 C 183.79 17.24 176.56 15.72 175.31 21.11 C 179.25 24.81 185.87 22.10 190.15 25.56 C 195.21 28.21 194.25 36.31 189.07 38.23 C 183.13 40.71 176.06 40.73 170.18 38.04 C 170.22 39.78 170.25 41.51 170.27 43.24 C 169.58 43.24 168.19 43.25 167.50 43.25 C 167.50 38.92 167.50 34.58 167.50 30.25 C 168.18 30.25 169.55 30.25 170.23 30.25 C 170.24 31.72 170.27 33.18 170.30 34.65 C 174.50 37.19 180.05 38.91 184.76 36.82 C 186.98 36.14 187.66 32.57 185.15 31.80 C 181.10 30.77 176.46 31.72 172.86 29.11 C 169.40 27.25 167.23 22.26 170.00 18.94 C 174.10 13.76 181.82 13.94 187.36 16.48 C 187.32 15.87 187.22 14.65 187.17 14.04 Z" />
<path fill="#000000" d=" M 271.99 14.00 C 272.68 14.00 274.06 14.00 274.75 14.00 C 274.75 16.92 274.75 19.83 274.75 22.74 C 274.06 22.75 272.68 22.75 271.99 22.75 C 272.00 21.96 272.01 20.39 272.02 19.60 C 268.27 17.04 261.77 16.03 259.59 21.05 C 263.64 24.38 269.43 22.43 273.86 24.94 C 276.85 26.30 279.08 29.65 278.09 33.00 C 277.55 36.35 274.38 38.43 271.31 39.18 C 265.94 40.46 260.03 40.53 255.00 38.00 C 255.00 39.75 255.00 41.50 255.00 43.25 C 254.31 43.25 252.94 43.25 252.25 43.25 C 252.25 38.91 252.25 34.58 252.25 30.25 C 252.94 30.25 254.33 30.25 255.02 30.25 C 255.01 31.32 254.98 33.47 254.96 34.54 C 259.20 37.26 265.00 38.99 269.77 36.67 C 272.01 35.78 272.19 32.24 269.62 31.68 C 265.68 30.91 261.28 31.61 257.78 29.21 C 254.19 27.37 251.91 22.24 254.81 18.85 C 258.91 13.81 266.56 13.87 272.01 16.53 C 272.01 15.90 272.00 14.63 271.99 14.00 Z" />
<path fill="#000000" d=" M 40.75 14.24 C 41.52 14.25 43.04 14.27 43.81 14.28 C 43.77 14.86 43.69 16.01 43.66 16.59 C 48.75 14.83 54.42 13.93 59.65 15.58 C 62.01 16.26 64.51 18.23 64.23 20.95 C 64.30 26.46 64.22 31.97 64.24 37.48 C 64.74 37.49 65.75 37.51 66.25 37.52 L 66.24 39.50 C 63.06 39.50 59.87 39.50 56.68 39.49 C 56.74 38.99 56.86 38.00 56.92 37.50 C 52.30 40.23 46.53 41.11 41.38 39.52 C 36.59 37.88 35.82 30.73 39.76 27.79 C 44.76 24.01 51.37 24.31 57.24 23.07 C 56.72 21.34 57.08 18.63 54.93 17.94 C 51.43 16.93 47.49 17.57 44.28 19.22 C 44.07 19.92 43.66 21.31 43.45 22.00 C 42.78 22.00 41.43 22.00 40.75 22.00 C 40.75 19.41 40.75 16.83 40.75 14.24 Z" />
<path fill="#000000" d=" M 67.51 17.66 C 71.00 16.64 74.60 16.02 78.00 14.70 C 78.00 15.48 78.00 17.06 77.99 17.85 C 81.32 15.99 85.08 14.05 89.02 14.94 C 92.03 15.36 94.30 18.00 94.58 20.97 C 94.98 26.47 94.63 31.99 94.75 37.50 C 95.50 37.50 97.01 37.51 97.76 37.51 C 97.76 38.01 97.75 39.00 97.74 39.50 C 93.25 39.50 88.75 39.50 84.25 39.50 C 84.25 39.00 84.25 38.00 84.24 37.51 C 85.06 37.50 86.69 37.50 87.50 37.50 C 87.36 32.03 87.79 26.53 87.29 21.07 C 85.27 17.41 80.68 18.91 77.99 20.93 C 78.01 26.46 77.99 31.98 78.01 37.51 C 78.75 37.51 80.25 37.50 81.00 37.50 L 81.00 39.50 C 76.50 39.50 72.00 39.50 67.50 39.50 L 67.51 37.49 C 68.26 37.50 69.76 37.51 70.50 37.51 C 70.51 31.61 70.48 25.70 70.52 19.80 C 68.65 20.14 67.64 19.42 67.51 17.66 Z" />
<path fill="#000000" d=" M 99.49 15.01 C 112.33 14.99 125.16 15.00 138.00 15.00 C 138.00 15.69 138.00 17.06 138.00 17.74 C 137.31 17.75 135.93 17.76 135.25 17.77 C 129.45 25.30 123.71 32.86 117.94 40.40 C 112.90 32.89 107.99 25.29 103.00 17.75 C 101.84 17.75 100.67 17.75 99.51 17.75 C 99.50 17.07 99.50 15.69 99.49 15.01 Z" />
<path fill="#000000" d=" M 293.69 17.83 C 297.30 16.64 301.12 16.18 304.71 14.86 C 304.90 21.21 304.50 27.58 304.90 33.92 C 306.37 37.74 311.16 36.11 313.31 33.87 C 313.76 29.24 313.38 24.57 313.51 19.93 C 311.98 19.87 310.87 19.18 310.18 17.84 C 313.84 16.73 317.59 15.91 321.23 14.70 C 321.27 22.30 321.24 29.90 321.25 37.50 C 322.06 37.50 323.68 37.50 324.49 37.50 L 324.50 39.50 C 320.91 39.50 317.33 39.50 313.75 39.50 C 313.75 38.83 313.76 37.49 313.76 36.82 C 311.31 38.29 308.88 40.09 305.90 40.21 C 302.20 40.82 297.99 38.63 296.86 34.98 C 296.59 29.88 296.80 24.76 296.80 19.65 C 295.12 19.92 293.18 20.31 293.69 17.83 Z" />
<path fill="#000000" d=" M 355.68 17.41 C 359.11 16.50 362.54 15.59 365.99 14.73 C 366.01 22.32 365.99 29.91 366.00 37.51 C 366.75 37.50 368.25 37.50 369.00 37.50 L 369.00 39.50 C 364.50 39.50 360.00 39.50 355.51 39.50 L 355.50 37.52 C 356.19 37.51 357.56 37.50 358.25 37.49 C 358.24 31.35 358.28 25.22 358.23 19.09 C 357.63 19.23 356.43 19.51 355.83 19.65 C 355.79 19.09 355.72 17.97 355.68 17.41 Z" />
<path fill="#000000" d=" M 378.33 15.59 C 383.64 13.75 390.19 14.73 393.91 19.20 C 397.00 23.16 396.50 29.00 394.04 33.15 C 390.13 39.55 381.20 41.65 374.51 38.78 C 369.73 36.71 367.72 30.95 368.68 26.09 C 369.43 21.05 373.61 17.08 378.33 15.59 Z" />
<path fill="#ffffff" d=" M 112.19 17.75 C 118.73 17.75 125.27 17.75 131.81 17.75 C 128.30 22.39 124.90 27.10 121.39 31.74 C 118.28 27.10 115.22 22.43 112.19 17.75 Z" />
<path fill="#ffffff" d=" M 336.16 18.94 C 338.53 17.28 341.49 18.17 344.00 18.97 C 344.00 24.08 343.98 29.20 344.02 34.32 C 341.59 36.68 337.51 37.87 334.83 35.22 C 329.41 31.22 331.17 22.51 336.16 18.94 Z" />
<path fill="#ffffff" d=" M 378.44 18.52 C 380.81 16.69 384.09 18.24 385.67 20.38 C 388.74 24.25 389.98 30.07 387.39 34.50 C 386.20 36.78 382.89 37.92 380.78 36.19 C 377.13 33.34 375.73 28.45 375.73 23.98 C 375.67 21.86 376.87 19.87 378.44 18.52 Z" />
<path fill="#ffffff" d=" M 45.17 33.02 C 45.39 27.00 52.60 26.77 56.99 25.70 C 56.97 28.48 57.15 31.27 56.88 34.05 C 54.63 38.60 45.82 38.94 45.17 33.02 Z" />
<path fill="#ffffff" d=" M 144.54 32.10 C 145.58 26.75 152.04 26.83 156.24 25.70 C 155.75 29.28 157.93 34.65 153.61 36.46 C 150.18 38.99 143.79 36.90 144.54 32.10 Z" />
<path fill="#000000" d=" M 201.74 57.42 C 202.23 59.71 202.18 62.07 201.94 64.39 C 201.41 62.10 201.44 59.74 201.74 57.42 Z" />
<path fill="#000000" d=" M 191.00 61.19 C 192.70 60.96 194.07 63.44 193.64 64.93 C 192.13 64.92 190.88 62.55 191.00 61.19 Z" />
<path fill="#000000" d=" M 211.23 60.66 C 212.50 61.00 211.34 63.00 211.03 63.78 C 210.69 64.26 209.95 66.50 209.22 65.19 C 209.00 63.48 210.00 61.76 211.23 60.66 Z" />
<path fill="#000000" d=" M 190.54 76.94 C 189.99 69.80 198.09 63.74 204.77 66.43 C 210.94 68.26 214.46 76.38 210.77 81.90 C 208.48 85.02 206.52 88.36 205.40 92.09 C 205.86 92.47 206.31 92.87 206.76 93.28 C 206.56 94.73 206.43 96.19 206.35 97.65 C 205.11 98.55 203.88 99.48 202.71 100.47 C 201.82 100.53 200.93 100.57 200.04 100.63 C 196.97 98.73 194.71 94.62 197.43 91.46 L 196.49 92.06 C 197.13 86.02 190.28 82.82 190.54 76.94 Z" />
<path fill="#ffffff" d=" M 191.21 77.02 C 190.58 70.48 197.76 64.81 203.99 66.79 C 208.82 68.01 212.33 73.08 211.53 78.05 C 211.13 81.95 207.48 84.38 206.40 88.01 C 205.69 89.61 205.90 92.14 203.19 91.91 C 203.68 87.95 204.59 84.07 205.52 80.20 C 205.34 80.19 204.98 80.17 204.81 80.16 C 204.62 80.96 204.25 82.57 204.07 83.37 C 203.20 82.13 202.39 80.85 201.64 79.53 C 201.66 80.01 201.70 80.96 201.72 81.44 C 200.87 81.49 199.16 81.58 198.31 81.63 C 197.97 81.09 197.30 80.01 196.96 79.48 C 197.86 83.63 198.92 87.74 199.64 91.93 C 196.26 91.87 197.09 88.23 195.60 86.23 C 193.85 83.33 190.96 80.71 191.21 77.02 Z" />
<path fill="#000000" d=" M 184.22 68.82 C 185.33 67.48 188.97 69.36 188.83 71.11 C 187.19 71.49 185.35 69.92 184.22 68.82 Z" />
<path fill="#000000" d=" M 212.80 71.36 C 214.66 70.02 216.70 68.96 218.85 68.18 C 217.05 69.61 214.99 70.69 212.80 71.36 Z" />
<path fill="#7c7474" d=" M 183.16 77.45 C 184.45 76.68 186.30 76.63 187.62 77.34 C 187.28 78.70 183.57 78.78 183.16 77.45 Z" />
<path fill="#7c7474" d=" M 215.28 77.31 C 216.44 76.68 219.21 76.40 219.69 77.85 C 218.51 78.47 215.76 78.75 215.28 77.31 Z" />
<path fill="#ffffff" d=" M 198.47 82.72 L 200.16 81.64 C 200.37 82.36 200.78 83.80 200.99 84.52 C 201.14 83.77 201.45 82.28 201.60 81.53 C 205.98 83.63 202.53 88.55 202.22 92.00 C 198.67 90.59 199.49 85.78 198.47 82.72 Z" />
<path fill="#000000" d=" M 185.06 87.96 C 186.79 86.49 188.67 85.20 190.67 84.12 C 189.14 85.83 187.18 87.11 185.06 87.96 Z" />
<path fill="#000000" d=" M 212.05 83.98 C 214.11 85.17 216.05 86.57 217.73 88.26 C 215.63 87.13 213.69 85.71 212.05 83.98 Z" />
<path fill="#000000" d=" M 165.90 91.24 C 168.32 89.07 173.60 89.90 172.79 93.91 C 171.17 97.83 166.95 95.02 164.03 94.85 C 120.31 94.20 76.58 94.08 32.87 93.18 C 36.53 92.43 40.28 92.78 43.99 92.66 C 84.62 92.17 125.27 91.80 165.90 91.24 Z" />
<path fill="#000000" d=" M 229.19 90.26 C 230.89 89.41 232.56 90.58 234.09 91.24 C 276.71 91.87 319.33 92.22 361.95 92.75 L 364.97 93.19 C 321.37 94.10 277.75 94.16 234.14 94.89 C 232.39 95.72 230.22 96.89 228.43 95.47 C 226.37 94.22 226.95 90.94 229.19 90.26 Z" />
<path fill="#ffffff" d=" M 197.32 95.65 C 197.38 94.55 197.55 93.47 197.68 92.38 C 200.00 92.44 202.33 92.46 204.64 92.21 C 204.98 93.01 205.66 94.62 206.00 95.42 C 203.11 95.62 200.21 95.59 197.32 95.65 Z" />
<path fill="#ffffff" d=" M 196.52 96.66 C 199.24 96.93 202.27 95.92 204.82 97.18 C 205.15 98.66 203.24 98.89 202.41 99.67 C 201.89 99.68 200.86 99.70 200.34 99.71 C 199.05 98.71 197.77 97.70 196.52 96.66 Z" />
<path fill="#000000" d=" M 111.97 128.25 C 114.97 128.24 117.97 128.23 120.97 128.33 C 120.77 129.99 120.60 131.69 119.93 133.25 C 120.38 135.42 120.94 137.55 121.50 139.69 C 122.31 137.48 123.10 135.27 123.81 133.03 C 123.12 131.53 122.68 129.95 122.48 128.31 C 125.17 128.23 127.86 128.23 130.56 128.33 C 130.21 129.92 129.81 131.51 129.35 133.07 C 130.06 135.33 130.81 137.58 131.57 139.83 C 132.17 137.57 132.80 135.32 133.33 133.04 C 132.69 131.54 132.45 129.93 132.28 128.31 C 134.61 128.25 136.94 128.24 139.27 128.25 C 139.25 129.23 139.23 130.22 139.21 131.22 C 136.20 135.39 135.24 140.59 133.22 145.25 C 131.46 145.24 129.70 145.25 127.94 145.25 C 127.17 143.08 126.43 140.90 125.67 138.73 C 124.87 140.90 124.10 143.07 123.35 145.26 C 121.55 145.25 119.76 145.24 117.96 145.24 C 115.94 140.70 115.22 135.45 112.04 131.51 C 112.01 130.42 111.99 129.34 111.97 128.25 Z" />
<path fill="#000000" d=" M 156.00 128.25 C 158.59 128.25 161.17 128.25 163.76 128.25 C 163.75 130.11 163.74 131.97 163.72 133.83 C 166.73 133.10 170.44 132.64 172.79 135.15 C 175.99 138.58 173.72 145.02 168.97 145.43 C 164.64 145.17 160.30 145.19 155.96 145.26 C 155.99 144.48 156.05 142.92 156.08 142.14 C 158.80 139.56 157.01 135.37 157.51 132.07 L 156.00 131.96 C 156.00 130.72 156.00 129.48 156.00 128.25 Z" />
<path fill="#000000" d=" M 182.82 128.27 C 187.92 128.54 193.41 127.33 198.21 129.58 C 203.81 132.53 203.55 141.99 197.63 144.41 C 192.92 145.93 187.87 145.00 183.01 145.25 C 183.00 144.36 182.99 142.59 182.98 141.70 C 183.31 141.41 183.98 140.83 184.31 140.54 C 184.26 138.10 184.26 135.66 184.15 133.22 C 183.00 131.80 182.96 129.99 182.82 128.27 Z" />
<path fill="#000000" d=" M 237.53 128.92 C 239.87 128.10 243.36 127.01 244.73 129.91 C 243.79 133.64 237.33 132.93 237.53 128.92 Z" />
<path fill="#000000" d=" M 139.44 141.69 C 137.25 136.88 142.39 132.20 147.11 132.99 C 151.06 132.81 154.05 135.95 154.52 139.70 C 151.19 139.77 147.85 139.72 144.52 139.81 C 144.97 140.87 145.52 141.87 146.19 142.81 C 148.86 141.75 151.64 141.42 154.44 142.30 C 150.71 146.62 142.45 146.93 139.44 141.69 Z" />
<path fill="#ffffff" d=" M 190.80 131.81 C 196.50 131.79 196.61 141.81 190.79 141.61 C 190.72 138.34 190.73 135.07 190.80 131.81 Z" />
<path fill="#000000" d=" M 204.62 141.51 C 202.49 136.36 208.35 131.88 213.15 133.06 C 216.82 133.14 219.23 136.29 219.79 139.66 C 216.43 139.78 213.06 139.72 209.70 139.82 C 210.10 140.55 210.92 142.00 211.32 142.73 C 212.60 142.98 213.64 142.02 214.73 141.52 C 216.36 141.77 218.00 142.04 219.63 142.33 C 215.90 146.68 207.44 146.92 204.62 141.51 Z" />
<path fill="#000000" d=" M 250.19 134.15 C 252.31 132.70 254.93 133.53 257.29 133.60 C 260.03 133.57 262.76 133.46 265.49 133.52 C 265.36 135.20 265.04 136.85 263.83 138.11 C 263.40 141.51 264.66 145.49 262.45 148.44 C 258.49 151.70 252.90 150.39 248.29 149.69 C 248.66 148.93 249.42 147.40 249.79 146.64 C 252.88 147.08 256.73 147.74 258.50 144.38 C 255.52 144.39 252.08 145.52 249.45 143.54 C 246.15 141.38 246.66 135.82 250.19 134.15 Z" />
<path fill="#000000" d=" M 266.81 133.51 C 269.69 133.63 272.72 133.02 275.45 134.21 C 277.76 133.38 280.62 132.52 282.73 134.31 C 284.51 136.23 283.83 139.12 284.08 141.49 C 284.44 141.51 285.16 141.56 285.51 141.58 C 285.51 142.49 285.49 144.33 285.49 145.25 C 282.91 145.25 280.34 145.25 277.77 145.25 C 277.76 142.59 277.77 139.94 277.63 137.29 C 276.61 137.34 275.60 137.40 274.60 137.47 C 274.76 139.19 274.68 141.11 276.13 142.36 C 276.18 143.08 276.28 144.52 276.33 145.24 C 273.22 145.25 270.11 145.25 267.00 145.25 C 267.00 144.32 267.00 142.47 266.99 141.54 C 267.38 141.52 268.15 141.46 268.54 141.44 C 268.52 140.58 268.47 138.86 268.45 138.00 C 266.84 137.01 267.00 135.14 266.81 133.51 Z" />
<path fill="#000000" d=" M 222.46 134.56 C 225.97 132.14 230.35 134.04 234.27 133.53 C 234.25 134.40 234.21 136.12 234.19 136.99 C 231.17 137.04 228.35 134.77 225.39 136.09 C 227.99 137.20 230.87 137.48 233.43 138.70 C 235.84 139.96 235.42 144.00 232.88 144.86 C 229.48 146.21 225.75 144.78 222.20 145.21 C 222.24 144.28 222.32 142.41 222.36 141.48 C 225.25 141.91 228.01 143.11 230.98 142.99 C 228.71 140.79 225.26 140.98 222.73 139.25 C 221.20 138.13 221.60 135.97 222.46 134.56 Z" />
<path fill="#000000" d=" M 236.77 133.52 C 239.34 133.50 241.92 133.50 244.49 133.50 C 244.67 136.39 243.89 139.53 245.35 142.20 C 245.41 142.96 245.53 144.48 245.59 145.24 C 242.63 145.25 239.68 145.25 236.72 145.23 C 237.13 142.91 237.73 140.63 238.36 138.37 C 237.07 137.05 236.93 135.25 236.77 133.52 Z" />
<path fill="#ffffff" d=" M 146.24 135.18 C 147.30 136.13 148.27 137.18 149.23 138.24 C 147.69 138.38 146.16 138.49 144.63 138.56 C 145.14 137.42 145.67 136.29 146.24 135.18 Z" />
<path fill="#ffffff" d=" M 211.48 135.64 C 213.10 135.61 213.57 137.29 214.32 138.41 C 212.76 138.43 211.21 138.43 209.65 138.39 C 210.25 137.47 210.85 136.55 211.48 135.64 Z" />
<path fill="#ffffff" d=" M 165.60 136.72 C 168.68 136.26 168.99 142.16 165.92 142.00 C 163.02 142.41 162.90 136.90 165.60 136.72 Z" />
<path fill="#ffffff" d=" M 255.28 136.75 C 258.19 136.33 258.71 141.68 255.86 141.95 C 252.83 142.64 252.67 137.02 255.28 136.75 Z" />
</svg>
